<?xml version="1.0" standalone="no"?>
<!DOCTYPE svg PUBLIC "-//W3C//DTD SVG 20010904//EN"
 "http://www.w3.org/TR/2001/REC-SVG-20010904/DTD/svg10.dtd">
<svg version="1.0" xmlns="http://www.w3.org/2000/svg"
 width="500.000000pt" height="500.000000pt" viewBox="0 0 500.000000 500.000000"
 preserveAspectRatio="xMidYMid meet">
<metadata>
Created by potrace 1.11, written by Peter Selinger 2001-2013
</metadata>
<g transform="translate(0.000000,500.000000) scale(0.100000,-0.100000)"
fill="#000000" stroke="none">
<path d="M2359 4996 c-2 -2 -41 -7 -87 -10 -46 -4 -89 -9 -95 -11 -7 -2 -36
-6 -66 -10 -132 -14 -391 -88 -569 -161 -352 -146 -703 -401 -935 -679 -27
-33 -53 -62 -56 -65 -14 -11 -171 -235 -171 -244 0 -3 -13 -24 -29 -48 -29
-45 -119 -223 -160 -318 -22 -52 -89 -247 -96 -280 -2 -8 -10 -42 -19 -75 -8
-33 -18 -76 -22 -95 -3 -19 -7 -39 -8 -45 -2 -5 -6 -32 -10 -60 -4 -27 -10
-61 -12 -75 -25 -155 -25 -497 0 -652 3 -18 8 -46 10 -63 29 -185 101 -435
172 -596 81 -184 263 -489 323 -543 11 -11 21 -23 21 -28 0 -12 70 -89 205
-223 295 -296 670 -513 1085 -629 85 -23 243 -56 248 -52 2 3 16 0 30 -5 79
-30 592 -34 747 -5 11 2 43 7 70 11 28 5 52 9 55 10 3 1 23 5 45 9 195 39 569
180 675 256 16 12 30 19 30 16 0 -11 205 127 306 205 121 93 304 273 397 389
139 173 283 411 352 580 14 36 33 79 40 96 13 27 32 86 80 244 9 30 17 62 19
70 2 8 6 26 9 40 8 29 15 70 23 120 3 19 11 73 18 120 13 83 15 553 3 610 -3
14 -11 59 -17 100 -66 424 -271 870 -556 1210 -28 33 -242 248 -284 285 -178
156 -442 318 -675 412 -235 96 -419 143 -700 178 -56 7 -390 16 -396 11z"/>
</g>
</svg>
